<svg width="266" height="59" viewBox="0 0 266 59" fill="none" xmlns="http://www.w3.org/2000/svg">
<g clip-path="url(#clip0_8_143)">
<path d="M266 45.5747H232.3V57.9943H266V45.5747Z" fill="#F2F2F2"/>
<path d="M220.421 29.5627L191.89 1.13599L183.078 9.91652L202.797 29.5652L183.078 49.2113L191.89 57.9943L220.421 29.5652V29.5627Z" fill="#F2F2F2"/>
<path d="M0 39.226H13.9075C13.9075 43.2781 16.5109 46.4378 21.1451 46.4378C25.2931 46.4378 27.6522 44.4928 27.6522 41.5742C27.6522 38.6555 25.6213 37.5269 20.5775 35.7418L13.34 33.2288C6.01854 30.7159 0.493525 25.3679 0.493525 17.3447C0.493525 6.64626 9.27086 0 20.0889 0C32.7775 0 40.2593 7.05197 40.2593 17.8291H26.9218C26.7589 14.7482 24.5627 12.2377 20.0889 12.2377C17.0784 12.2377 14.4776 13.8581 14.4776 16.371C14.4776 18.8028 15.8594 20.1797 20.9847 21.9624L28.1408 24.3942C35.0501 26.7449 41.2365 30.5536 41.2365 40.1161C41.2365 50.2465 34.0804 59 20.5084 59C7.97043 59.0025 0 51.2964 0 39.226Z" fill="#F2F2F2"/>
<path d="M89.4662 57.8665H74.3372L57.8263 32.0142V57.8665H44.4888V1.13599H57.8263V25.4491L73.1996 1.13599H88.5704L70.7591 28.771L89.4662 57.8665Z" fill="#F2F2F2"/>
<path d="M91.1713 57.8665V1.13599H104.509V57.8665H91.1713Z" fill="#F2F2F2"/>
<path d="M148.428 1.13599H164.694V57.8665H151.682V32.2576C151.682 29.0144 151.764 27.0719 152.008 23.2607L141.434 57.8665H131.835L121.261 23.2656C121.508 27.0743 121.587 29.0193 121.587 32.2625V57.8665H108.575V1.13599H124.842L134.52 28.6898C135.334 31.0405 136.065 33.0666 136.635 35.6606C137.205 33.0666 137.935 31.0405 138.75 28.6898L148.428 1.13599Z" fill="#F2F2F2"/>
</g>
<defs>
<clipPath id="clip0_8_143">
<rect width="266" height="59" fill="white"/>
</clipPath>
</defs>
</svg>
