<svg width="297" height="111" viewBox="0 0 297 111" fill="none" xmlns="http://www.w3.org/2000/svg">
<g clip-path="url(#clip0_2_487)">
<path d="M57.24 110.71H44L39.82 98.64H17.42L13.23 110.71H0L20.91 51.23H36.34L57.24 110.71ZM26.92 70.71L21.32 87.14H35.92L30.32 70.71C29.24 67.71 28.68 66.07 28.62 65.9C28.56 66 28 67.61 26.92 70.68V70.71Z" fill="#F2F2F2"/>
<path d="M92.2301 108C88.6046 109.849 84.5792 110.776 80.5101 110.7C76.4409 110.776 72.4156 109.849 68.7901 108C65.3272 106.156 62.4957 103.317 60.6601 99.85C58.5661 95.844 57.5333 91.3684 57.6601 86.85V51.23H70.2201V88C70.08 90.9571 71.0989 93.8523 73.0601 96.07C75.0467 98.0255 77.7225 99.1215 80.5101 99.1215C83.2977 99.1215 85.9735 98.0255 87.9601 96.07C89.9213 93.8523 90.9401 90.9571 90.8001 88V51.23H103.37V86.9C103.496 91.4184 102.464 95.8939 100.37 99.9C98.5238 103.35 95.6894 106.171 92.2301 108Z" fill="#F2F2F2"/>
<path d="M155.17 51.23V62.8H139V110.71H126.39V62.8H110.17V51.23H155.17Z" fill="#F2F2F2"/>
<path d="M174.5 110.71H161.93V51.23H174.5V73.34H201.17V51.23H213.74V110.71H201.17V84.87H174.5V110.71Z" fill="#F2F2F2"/>
<path d="M242.69 38.59C239.298 40.1661 236.161 42.2389 233.38 44.74L224.58 25.89C221.82 19.96 224.06 13.06 229.58 10.48C235.1 7.90002 241.83 10.63 244.58 16.56L250.26 28.73L258.84 24.73L252.84 11.85C250.482 7.01392 246.319 3.29747 241.247 1.50109C236.175 -0.295278 230.601 -0.0278429 225.725 2.2458C220.848 4.51945 217.06 8.61738 215.176 13.657C213.291 18.6967 213.462 24.2748 215.65 29.19L226.65 52.75C221.799 60.4751 219.895 69.6902 221.288 78.7053C222.68 87.7204 227.276 95.9314 234.232 101.833C241.188 107.734 250.038 110.93 259.16 110.834C268.282 110.739 277.063 107.358 283.894 101.313C290.725 95.2674 295.148 86.962 296.352 77.9197C297.555 68.8774 295.459 59.7042 290.447 52.0823C285.435 44.4604 277.844 38.9007 269.065 36.4225C260.286 33.9443 250.908 34.7139 242.65 38.59H242.69ZM270.77 98.81C265.661 101.191 259.961 102.003 254.391 101.145C248.82 100.286 243.629 97.7954 239.474 93.9869C235.319 90.1784 232.387 85.2234 231.048 79.7484C229.709 74.2735 230.023 68.5244 231.951 63.2281C233.879 57.9318 237.334 53.3261 241.88 49.9933C246.425 46.6606 251.857 44.7505 257.488 44.5045C263.119 44.2586 268.696 45.6878 273.515 48.6115C278.334 51.5352 282.178 55.822 284.56 60.93C286.143 64.3226 287.041 67.9937 287.204 71.7337C287.368 75.4736 286.793 79.2091 285.512 82.7267C284.232 86.2444 282.271 89.4753 279.741 92.2349C277.212 94.9945 274.163 97.2288 270.77 98.81Z" fill="#F2F2F2"/>
<path d="M258.72 83.84C264.718 83.84 269.58 78.9778 269.58 72.98C269.58 66.9822 264.718 62.12 258.72 62.12C252.722 62.12 247.86 66.9822 247.86 72.98C247.86 78.9778 252.722 83.84 258.72 83.84Z" fill="#F2F2F2"/>
</g>
<defs>
<clipPath id="clip0_2_487">
<rect width="296.68" height="110.93" fill="white"/>
</clipPath>
</defs>
</svg>
