<svg width="83" height="111" viewBox="0 0 83 111" fill="none" xmlns="http://www.w3.org/2000/svg">
<path d="M28.8141 38.2664C25.4225 39.8425 22.2847 41.9153 19.5041 44.4164L10.7041 25.5664C7.94413 19.6364 10.1841 12.7364 15.7041 10.1564C21.2241 7.57642 27.9541 10.3064 30.7041 16.2364L36.3841 28.4064L44.9641 24.4064L38.9641 11.5264C36.606 6.69031 32.4427 2.97386 27.3711 1.17749C22.2994 -0.618886 16.7251 -0.351451 11.8487 1.92219C6.97229 4.19584 3.18396 8.29378 1.29962 13.3334C-0.584726 18.3731 -0.414332 23.9512 1.77412 28.8664L12.7741 52.4264C7.9229 60.1515 6.01903 69.3665 7.41162 78.3817C8.8042 87.3968 13.3999 95.6078 20.356 101.509C27.3121 107.41 36.1624 110.606 45.284 110.511C54.4055 110.415 63.187 107.035 70.0181 100.989C76.8491 94.9438 81.272 86.6384 82.4756 77.5961C83.6792 68.5538 81.5829 59.3806 76.5711 51.7587C71.5592 44.1368 63.9678 38.5771 55.1888 36.0989C46.4098 33.6207 37.0317 34.3903 28.7741 38.2664H28.8141ZM56.8941 98.4864C51.7853 100.867 46.0852 101.68 40.5146 100.821C34.9441 99.9627 29.7531 97.4718 25.5981 93.6633C21.4432 89.8548 18.5107 84.8998 17.1717 79.4248C15.8326 73.9499 16.1469 68.2008 18.075 62.9045C20.0031 57.6082 23.4583 53.0025 28.0038 49.6697C32.5493 46.337 37.9809 44.4269 43.6119 44.1809C49.2429 43.935 54.8204 45.3642 59.6391 48.2879C64.4579 51.2115 68.3016 55.4984 70.6841 60.6064C72.2666 63.999 73.1651 67.6701 73.3285 71.41C73.4918 75.15 72.9168 78.8855 71.6362 82.4031C70.3557 85.9208 68.3946 89.1517 65.8651 91.9113C63.3356 94.6709 60.2873 96.9051 56.8941 98.4864Z" fill="black"/>
<path d="M44.8441 83.5164C50.8419 83.5164 55.7041 78.6542 55.7041 72.6564C55.7041 66.6586 50.8419 61.7964 44.8441 61.7964C38.8463 61.7964 33.9841 66.6586 33.9841 72.6564C33.9841 78.6542 38.8463 83.5164 44.8441 83.5164Z" fill="black"/>
</svg>
