<svg width="391" height="106" viewBox="0 0 391 106" fill="none" xmlns="http://www.w3.org/2000/svg">
<path d="M3.57244 105.182V75.1818H6.02983V79.3438H6.32812C6.63116 78.6903 7.04782 78.0227 7.57812 77.3409C8.10843 76.6496 8.80919 76.0672 9.6804 75.5938C10.5611 75.1203 11.669 74.8835 13.0043 74.8835C14.8035 74.8835 16.3755 75.357 17.7202 76.304C19.0743 77.2415 20.1255 78.5578 20.8736 80.2528C21.6312 81.9384 22.0099 83.9034 22.0099 86.1477C22.0099 88.4015 21.6312 90.3759 20.8736 92.071C20.1255 93.7661 19.0743 95.0871 17.7202 96.0341C16.3755 96.9811 14.813 97.4545 13.0327 97.4545C11.7164 97.4545 10.6132 97.2178 9.72301 96.7443C8.84233 96.2708 8.12737 95.6884 7.57812 94.9972C7.03835 94.2964 6.62169 93.6146 6.32812 92.9517H6.10085V105.182H3.57244ZM6.07244 86.1051C6.07244 87.8665 6.33286 89.429 6.85369 90.7926C7.384 92.1468 8.14157 93.2121 9.12642 93.9886C10.1207 94.7557 11.3234 95.1392 12.7344 95.1392C14.1832 95.1392 15.4048 94.7415 16.3991 93.946C17.4029 93.1411 18.1652 92.0568 18.6861 90.6932C19.2164 89.3295 19.4815 87.8002 19.4815 86.1051C19.4815 84.429 19.2211 82.9186 18.7003 81.5739C18.1889 80.2292 17.4313 79.1638 16.4276 78.3778C15.4238 77.5824 14.1927 77.1847 12.7344 77.1847C11.3139 77.1847 10.1065 77.5682 9.11222 78.3352C8.1179 79.0928 7.36032 80.1439 6.83949 81.4886C6.32812 82.8239 6.07244 84.3627 6.07244 86.1051ZM36.0369 97.4545C34.1525 97.4545 32.4858 96.9763 31.0369 96.0199C29.5975 95.0634 28.4706 93.7424 27.6562 92.0568C26.8419 90.3617 26.4347 88.4062 26.4347 86.1903C26.4347 83.9555 26.8419 81.9905 27.6562 80.2955C28.4706 78.5909 29.5975 77.2652 31.0369 76.3182C32.4858 75.3617 34.1525 74.8835 36.0369 74.8835C37.9214 74.8835 39.5833 75.3617 41.0227 76.3182C42.4621 77.2746 43.589 78.6004 44.4034 80.2955C45.2273 81.9905 45.6392 83.9555 45.6392 86.1903C45.6392 88.4062 45.232 90.3617 44.4176 92.0568C43.6032 93.7424 42.4716 95.0634 41.0227 96.0199C39.5833 96.9763 37.9214 97.4545 36.0369 97.4545ZM36.0369 95.1392C37.5521 95.1392 38.8352 94.732 39.8864 93.9176C40.9375 93.1032 41.733 92.0189 42.2727 90.6648C42.822 89.3106 43.0966 87.8191 43.0966 86.1903C43.0966 84.5616 42.822 83.0653 42.2727 81.7017C41.733 80.3381 40.9375 79.2443 39.8864 78.4205C38.8352 77.5966 37.5521 77.1847 36.0369 77.1847C34.5313 77.1847 33.2481 77.5966 32.1875 78.4205C31.1364 79.2443 30.3362 80.3381 29.7869 81.7017C29.2472 83.0653 28.9773 84.5616 28.9773 86.1903C28.9773 87.8191 29.2472 89.3106 29.7869 90.6648C30.3362 92.0189 31.1364 93.1032 32.1875 93.9176C33.2386 94.732 34.5218 95.1392 36.0369 95.1392ZM55.2912 97L48.7003 75.1818H51.3707L56.5412 93.179H56.7259L61.8821 75.1818H64.5668L69.6804 93.1364H69.8793L75.0497 75.1818H77.7202L71.1293 97H68.5156L63.3452 79.1165H63.0753L57.9048 97H55.2912ZM90.7138 97.4545C88.6778 97.4545 86.9164 96.9811 85.4297 96.0341C83.9429 95.0777 82.7924 93.7566 81.978 92.071C81.1731 90.3759 80.7706 88.4252 80.7706 86.2188C80.7706 84.0218 81.1731 82.071 81.978 80.3665C82.7924 78.6525 83.9145 77.3125 85.3445 76.3466C86.7839 75.3712 88.4458 74.8835 90.3303 74.8835C91.514 74.8835 92.6551 75.1013 93.7536 75.5369C94.852 75.9631 95.8369 76.6212 96.7081 77.5114C97.5888 78.392 98.2848 79.5047 98.7962 80.8494C99.3075 82.1847 99.5632 83.7661 99.5632 85.5938V86.8438H82.5178V84.6136H96.978C96.978 83.2121 96.6939 81.9527 96.1257 80.8352C95.567 79.7083 94.7857 78.8182 93.782 78.1648C92.7876 77.5114 91.6371 77.1847 90.3303 77.1847C88.9477 77.1847 87.7308 77.554 86.6797 78.2926C85.6286 79.0312 84.8047 80.0066 84.2081 81.2188C83.621 82.4309 83.3227 83.7566 83.3132 85.196V86.5312C83.3132 88.2642 83.6115 89.7794 84.2081 91.0767C84.8142 92.3646 85.6712 93.3636 86.7791 94.0739C87.8871 94.7841 89.1986 95.1392 90.7138 95.1392C91.746 95.1392 92.6503 94.9782 93.4268 94.6562C94.2128 94.3343 94.871 93.9034 95.4013 93.3636C95.9411 92.8144 96.3482 92.2131 96.6229 91.5597L99.0234 92.3409C98.692 93.2595 98.1475 94.107 97.3899 94.8835C96.6418 95.66 95.7043 96.285 94.5774 96.7585C93.46 97.2225 92.1721 97.4545 90.7138 97.4545ZM105.135 97V75.1818H107.592V78.5341H107.777C108.213 77.4356 108.97 76.5502 110.05 75.8778C111.139 75.196 112.37 74.8551 113.743 74.8551C113.951 74.8551 114.183 74.8598 114.439 74.8693C114.695 74.8788 114.908 74.8883 115.078 74.8977V77.4688C114.964 77.4498 114.766 77.4214 114.482 77.3835C114.197 77.3456 113.89 77.3267 113.558 77.3267C112.422 77.3267 111.409 77.5682 110.518 78.0511C109.638 78.5246 108.942 79.1828 108.43 80.0256C107.919 80.8684 107.663 81.8295 107.663 82.9091V97H105.135ZM127.55 97.4545C125.514 97.4545 123.752 96.9811 122.266 96.0341C120.779 95.0777 119.628 93.7566 118.814 92.071C118.009 90.3759 117.607 88.4252 117.607 86.2188C117.607 84.0218 118.009 82.071 118.814 80.3665C119.628 78.6525 120.75 77.3125 122.18 76.3466C123.62 75.3712 125.282 74.8835 127.166 74.8835C128.35 74.8835 129.491 75.1013 130.589 75.5369C131.688 75.9631 132.673 76.6212 133.544 77.5114C134.425 78.392 135.121 79.5047 135.632 80.8494C136.143 82.1847 136.399 83.7661 136.399 85.5938V86.8438H119.354V84.6136H133.814C133.814 83.2121 133.53 81.9527 132.962 80.8352C132.403 79.7083 131.622 78.8182 130.618 78.1648C129.624 77.5114 128.473 77.1847 127.166 77.1847C125.784 77.1847 124.567 77.554 123.516 78.2926C122.464 79.0312 121.641 80.0066 121.044 81.2188C120.457 82.4309 120.159 83.7566 120.149 85.196V86.5312C120.149 88.2642 120.447 89.7794 121.044 91.0767C121.65 92.3646 122.507 93.3636 123.615 94.0739C124.723 94.7841 126.035 95.1392 127.55 95.1392C128.582 95.1392 129.486 94.9782 130.263 94.6562C131.049 94.3343 131.707 93.9034 132.237 93.3636C132.777 92.8144 133.184 92.2131 133.459 91.5597L135.859 92.3409C135.528 93.2595 134.983 94.107 134.226 94.8835C133.478 95.66 132.54 96.285 131.413 96.7585C130.296 97.2225 129.008 97.4545 127.55 97.4545ZM149.826 97.4545C148.036 97.4545 146.469 96.9811 145.124 96.0341C143.78 95.0871 142.728 93.7661 141.971 92.071C141.223 90.3759 140.849 88.4015 140.849 86.1477C140.849 83.9034 141.223 81.9384 141.971 80.2528C142.728 78.5578 143.784 77.2415 145.138 76.304C146.493 75.357 148.069 74.8835 149.869 74.8835C151.194 74.8835 152.298 75.1203 153.178 75.5938C154.059 76.0578 154.764 76.6354 155.295 77.3267C155.825 78.018 156.237 78.6903 156.531 79.3438H156.758V67.9091H159.3V97H156.829V92.9517H156.531C156.237 93.6146 155.82 94.2964 155.281 94.9972C154.741 95.6884 154.026 96.2708 153.136 96.7443C152.255 97.2178 151.152 97.4545 149.826 97.4545ZM150.124 95.1392C151.535 95.1392 152.738 94.7557 153.732 93.9886C154.727 93.2121 155.484 92.1468 156.005 90.7926C156.535 89.429 156.8 87.8665 156.8 86.1051C156.8 84.3627 156.54 82.8239 156.019 81.4886C155.498 80.1439 154.741 79.0928 153.746 78.3352C152.752 77.5682 151.545 77.1847 150.124 77.1847C148.666 77.1847 147.435 77.5824 146.431 78.3778C145.437 79.1638 144.679 80.2292 144.158 81.5739C143.647 82.9186 143.391 84.429 143.391 86.1051C143.391 87.8002 143.652 89.3295 144.173 90.6932C144.693 92.0568 145.451 93.1411 146.445 93.946C147.449 94.7415 148.675 95.1392 150.124 95.1392ZM178.278 97V67.9091H180.82V79.3438H181.048C181.332 78.6903 181.739 78.018 182.269 77.3267C182.809 76.6354 183.514 76.0578 184.386 75.5938C185.266 75.1203 186.374 74.8835 187.71 74.8835C189.499 74.8835 191.071 75.357 192.425 76.304C193.78 77.2415 194.835 78.5578 195.593 80.2528C196.351 81.9384 196.729 83.9034 196.729 86.1477C196.729 88.4015 196.351 90.3759 195.593 92.071C194.845 93.7661 193.794 95.0871 192.44 96.0341C191.095 96.9811 189.532 97.4545 187.752 97.4545C186.426 97.4545 185.318 97.2178 184.428 96.7443C183.548 96.2708 182.837 95.6884 182.298 94.9972C181.758 94.2964 181.341 93.6146 181.048 92.9517H180.735V97H178.278ZM180.778 86.1051C180.778 87.8665 181.038 89.429 181.559 90.7926C182.089 92.1468 182.847 93.2121 183.832 93.9886C184.826 94.7557 186.029 95.1392 187.44 95.1392C188.888 95.1392 190.115 94.7415 191.119 93.946C192.122 93.1411 192.885 92.0568 193.406 90.6932C193.926 89.3295 194.187 87.8002 194.187 86.1051C194.187 84.429 193.926 82.9186 193.406 81.5739C192.894 80.2292 192.137 79.1638 191.133 78.3778C190.129 77.5824 188.898 77.1847 187.44 77.1847C186.019 77.1847 184.812 77.5682 183.817 78.3352C182.833 79.0928 182.08 80.1439 181.559 81.4886C181.038 82.8239 180.778 84.3627 180.778 86.1051ZM203.263 105.182C202.762 105.182 202.293 105.134 201.857 105.04C201.422 104.945 201.076 104.841 200.82 104.727L201.502 102.497C202.364 102.762 203.131 102.857 203.803 102.781C204.476 102.715 205.072 102.412 205.593 101.872C206.114 101.342 206.578 100.527 206.985 99.429L207.781 97.2131L199.755 75.1818H202.496L208.974 93.6619H209.173L215.65 75.1818H218.391L209.158 100.452C208.77 101.503 208.292 102.379 207.724 103.08C207.156 103.79 206.497 104.315 205.749 104.656C205.011 105.007 204.182 105.182 203.263 105.182Z" fill="black"/>
<g clip-path="url(#clip0_8_697)">
<path d="M391 79.7219H331.26V102H391V79.7219Z" fill="black"/>
<path d="M310.198 51L259.623 0L244 15.7535L278.955 51L244 86.2479L259.623 102L310.198 51.0014V51Z" fill="black"/>
</g>
<defs>
<clipPath id="clip0_8_697">
<rect width="147" height="102" fill="white" transform="translate(244)"/>
</clipPath>
</defs>
</svg>
